<mxfile host="app.diagrams.net" modified="2024-05-06T20:18:19.081Z" agent="Mozilla/5.0 (Windows NT 10.0; Win64; x64) AppleWebKit/537.36 (KHTML, like Gecko) Chrome/124.0.0.0 Safari/537.36" etag="lFNHOA7jemOYA59iZGeI" version="24.3.1" type="device">
  <diagram name="Page-1" id="gZJ3EmKsF8vLxAy7sh4k">
    <mxGraphModel dx="1434" dy="738" grid="1" gridSize="10" guides="1" tooltips="1" connect="1" arrows="1" fold="1" page="1" pageScale="1" pageWidth="827" pageHeight="1169" math="0" shadow="0">
      <root>
        <mxCell id="0" />
        <mxCell id="1" parent="0" />
        <mxCell id="nUquxGuq074uo5o9FC-O-1" value="" style="shape=image;verticalLabelPosition=bottom;labelBackgroundColor=default;verticalAlign=top;aspect=fixed;imageAspect=0;image=https://th.bing.com/th?id=OIP.eTCbdR_AFzbqHMPXhrJWUQHaEK&amp;w=333&amp;h=187&amp;c=8&amp;rs=1&amp;qlt=90&amp;o=6&amp;pid=3.1&amp;rm=2;" vertex="1" parent="1">
          <mxGeometry x="60" y="77" width="150" height="84.23" as="geometry" />
        </mxCell>
        <mxCell id="nUquxGuq074uo5o9FC-O-2" value="" style="shape=image;verticalLabelPosition=bottom;labelBackgroundColor=default;verticalAlign=top;aspect=fixed;imageAspect=0;image=data:image/jpeg,/9j/4AAQSkZJRgABAQAAAQABAAD/2wCEAAMDAwMDAwQEBAQFBQUFBQcHBgYHBwsICQgJCAsRCwwLCwwLEQ8SDw4PEg8bFRMTFRsfGhkaHyYiIiYwLTA+PlQBAwMDAwMDBAQEBAUFBQUFBwcGBgcHCwgJCAkICxELDAsLDAsRDxIPDg8SDxsVExMVGx8aGRofJiIiJjAtMD4+VP/CABEIAGQAjwMBIgACEQEDEQH/xAAdAAEBAAMBAAMBAAAAAAAAAAAAAQcICQYCAwQF/9oACAEBAAAAAOpoAAJUWKiyyxUWME/Xmz91llgDSb+xlvHm1IFBhznN0F8zr/vJ7kEqHOHD3QvCeuGxO88ssVDl/rV7b9mNd4t/JZZQar8wPszZ4rozsmCVFnJfaLKus21uXpZYoPjgTzmZ/cggAACglSgkoJUoJ//EABsBAQACAwEBAAAAAAAAAAAAAAACBQMEBgEH/9oACgICEAMQAAAAAAAAKizs6/JAAKL6Loc7ZWd1xIAQvfdLWu9vlAAyYvJQmAAAAAAB/8QAKBAAAQMEAgIBAwUAAAAAAAAABQAEBgEDBxECIQgwEBMVQBQWFyAj/9oACAEBAAEIAPwul0ul0ul0ul0ul0ul0ul0ul0ul16KI55E4/HmLAQLfz01D/6yUYUGmh7UiN93kZkl27OOIg1iTh9HsfxrmAZ8r9eFrncxjak8GykREOPbm/KNMWQ79WzEwObTkWaL2QNp02CirL1lE5Y7HSOwSn0smA6rCWMcbzsVkuGC5MN9dV5OHbpfMH25RuTkYYZaPbb0paGmmjB5OhOQzMpbtrUyLMrpvhGWHh+bvWDk6jXL11Xk3acx/MEne1c8rbr6d4mxyFLXUXZwm/zM5LPBi4SlxjUeXbsmviMw5uchTclT11XlJjd9JY8PlgZvVv8Ab7FG7IW/kzPlZEWpfL4SJbXCUZFTnJEq5lmnjRHf2WAlEZJe3yNx6cg0/kpfh4USJsYxudZWvJBm/IYakVhjg+O5X/i8W+YY5AyjjJJPKj/opT5rT4rxpypWlT9xtijItZDYyTmEDJYUUGxPHUUfwuLWRL75pT+mlpaWlpaWlpaWlpaWlpaWlpa/D2tqlVtbVara2tra2tra2qVW1tbX/8QAMhAAAgICAQMCBAQEBwAAAAAAAQMCBAAFEQYSExQhIjAxYSAyQlIHFRZQM1FicXKBkf/aAAgBAQAJPwD+2K3PVm1cJSjT0NI2x2RPBYbEytHYD7E9+dC9a6CkAS3YNpov1kgfqadc6xOA+5jlxF2naTFteyhgapq5jmM4TjyCD8g4cOHDhw5NCNXphCe4NmE3i9begOTWFZc1BqEwmGtDJhciYgg5oTst31DQrW7c7dk11eWVeLWOu2YwYYrh3CCUwj9ogAZ2rcIRLQqZmITA+IRkREkA/QkDI6tXS/VcbtzWVKRbxQ2NYhrYdjPy+pVIskIcQ74kgDDhw4cOHD+NSbO72b/Raaq0/BKxKBmXNA9/CiAM55stjutnt9rtoEznW7S6pFCJTuFse8Cx3/AFGMUQ4PBGJWqwqhWg9S5d0IMgsRlGJ9uQCOAc6ig+3tXQdVfR13pIUWqEO1sVFjTOUpwE2DkRlm3lW6n1nVo1rNQxSZ6+s3XUnSemE4RE3peH/wCJI98Iz49pDITUq6uQbWYeWVnqkVuQz/UuYI+bKfg6f0FVKoE+wfspl75D7mC1jNzf1+jsbnWz6irocFKfWgwLkyR+sJRHHeYEGcAYnF+ONw9ld5kBBlgEk1/tOcfiX+/3A9xlLc2ainnxeio1H1podwGLLPWUrCeQOGwn5I8jkZvF7ir0vBqW2EpTVryu2u0uFatXAWpChALHb9Z95JOTPgZDXbqvD/Jj++rY/wDSmB+agu9X0/rNkhfPHkCVzrzjz9irArZNmuM1rkOKSosHI8Sv1ex/NL3zbbFmumwqLDebJskQhIqq8T7uIRPHaYkEAAZvuqN5qKC0S2L4bF051K8hMySwLZHykhf7Zy7ecQ+rOteSqoJxmtikTjFjFSiwCUlEckA/7jOQqjodTRP3bYc6zx/1AD5tSdrZ9Mh5fVXHllvWv4NhcB+pizEMgPsRjYOQkvSlsDyJqUw+Mg/8CM1e62M5eaMzS1luxJc+48e6lkCUc/hl1NqIK1r9PNtfXWatOxVvQMAqRbEFcg0RmATLu9xmjc3zrW4W7zRrqkfWtlXWYzZ3TnAeGS4RVGR9jilQ6lo9RNbvJqZ5EvlbVBtV1ckA+Ao4hAEcgxPzumrFTpi9sfWVdjUSJ04F6V+UN8XJQS0SJMwActwsy1/UjyJQaGDstpW76j784l77RnryhSRy2bBcUIQgP3E50prLVMI2WvhXt7OVW5Zrz2s7cHCMYGEfCTKIhOYJzWo1T9vW1NFGvhYFmcEayDeGunD4PIyTz7R54iB+MYMGDBgwYAQfY5oNm7SdRaVNTYfybVsumrc1zZTQ5yawM+1qnyiZgfoGanqnb7toRPX1f6Y2qVGyh0GqDmPSmMFmUR3kyHAy+m/Z9bsLbnJQa6RO/anaktKzJhiqBZxAGRPGDBgwYMGD+ygYBgGAYBgGAYBgGAYBgGAYBgGAYBgGf//EACkRAAIBAwIFAgcAAAAAAAAAAAECAwQRIQAFEhMgIjEVUTAyQEFhcfH/2gAIAQIBAT8A+LNubI/bGCtz5OcailWaMOpweup3Jo9w5CsFAUAexdrHOo1ZmPcqXzcj21RVdqxqU+OXcYtY/wA69tpYV3OolkiVmZFaNyL8NsMNVe2xvUGWOoEaGO3LUA99/N9S0x9SjYXZIKYRiRvmdvz+h1xStE/EvnTOTIX+/FfRyb/Tf//EACgRAAIBAwQBAQkAAAAAAAAAAAECAwQFEQAGEjEgURMUISIwQEFhgf/aAAgBAwEBPwD6sVArplmIOpI2icq3nQbOeq2Ybqih52leUj8iCIMpx+8jOpGRQDgtjVftzhtGmvXUjVTq4z3GflU/xlPnfL1Wy7PtlHBWPHFBPLFU06njz5kyRucdjsY1bL7DTWtKWa0x1NQtZ7T3qQkYjCgcCBjkMj10LzCdp1lOeKVNxuhqGpYwwjp4h0qg/AZboennNEkycG60sYEQjzkceOugB9t//9k=;" vertex="1" parent="1">
          <mxGeometry x="300" y="80" width="143" height="100" as="geometry" />
        </mxCell>
        <mxCell id="nUquxGuq074uo5o9FC-O-3" value="" style="shape=image;verticalLabelPosition=bottom;labelBackgroundColor=default;verticalAlign=top;aspect=fixed;imageAspect=0;image=data:image/jpeg,/9j/4AAQSkZJRgABAQAAAQABAAD/2wCEAAMDAwMDAwQEBAQFBQUFBQcHBgYHBwsICQgJCAsRCwwLCwwLEQ8SDw4PEg8bFRMTFRsfGhkaHyYiIiYwLTA+PlQBAwMDAwMDBAQEBAUFBQUFBwcGBgcHCwgJCAkICxELDAsLDAsRDxIPDg8SDxsVExMVGx8aGRofJiIiJjAtMD4+VP/CABEIAGoAhAMBIgACEQEDEQH/xAAdAAEBAAICAwEAAAAAAAAAAAAAAQUGAgcDBAgJ/9oACAEBAAAAAP1MCUAJYssWLFixZYsWLFiyxYsWUJQThr3s5wEoavsWg4LxbN8ubzrmI3bQN4w+a7FzPyh39rf1D1Ts/wCSmT2XctJ6M9v9K898r9peDqbsH7kwm3afteJ87D+fcOoeG9+rsWo774+XIJQABKAAJQAgAAcgAA//xAAYAQEBAQEBAAAAAAAAAAAAAAAAAwQBBf/aAAoCAhADEAAAAAAAAAAAALQ2+fk1w3A5wda8EbxuAAAAAAAAH//EACMQAAEEAgMAAgMBAAAAAAAAAAUDBAYHAggAASEREhMWYBj/2gAIAQEAAQgA/kMu8cMe8sk1cFsfukhLo+sWUE5JH2ORjMQrz3nvPee8957z3nvPee895G5nGJesaRCOWyLxuq3cLVXCO8/yMzY88EYZoHO+2uLFg0fM5uLF4KD5QS3BPGpUdE1nau0gyqwcUweQnbVwvYI+D2OY3R7HzmWQtjQW0TO5yRsC9N7a2sAFfshSwttYxDYpXEpHRvcQQYAS6Svn9yX9FGCkllPd3hHVgV5GRMvtHCI2VXUOypyfSkDK7oCRCFbDAjIyZ/trrYWcio2jNizN22ftG7tqQDsI6dyGLwxXJ+IzalbQK0jHX5Oe01NZFKwNq0tcNgXrLQOyl9V2ErXXrtLLeO1+Rs8Ui+0V+GgLo/CpfVZ+RzGz1k/8rUd1zYVitG2NXzdtNNoaMj8EeHkY2Fc0Uf1ieTad2BEZttFRbeOa92RBotOLqEH7NGPryMX1J4EOFUdPIHg8IRUCwi0XCAmFmM+3cDO5YMXCT9i1d4ZVXWWZbotkWDCD7BVgVjUIhsMTWTjjGJRYYXcmGTOJRUcZcGmbWsa3YrkV2q9dQB0PaDl/r11j8cktC1HJhB1gpXNWqhKmDQecj4TDRKQtJgSrqAGWCo8iLEiwjBAeMd1VWD8vkYdddfHXXF0EnKWaKySeCKeCaf8AK//EADoQAAICAgEDAgIFBw0AAAAAAAECAwQABREGEhMhMQcyFCJBQlIIFSMwQ1FhEBZQVGBkcYGDkZK1wf/aAAgBAQAJPwA4cOHDhw4cOHDhw4cOHD/QYwYMGDBgwYMGDBgwYMGD9aQAoJJJAAA9yTjLIv4lIYf7jLfgvJIyLXsxtXabt+9D5ABKp+wrzizV7YUvCsyBVsoACXgYEhwvPDD5h9o/W7GO6+k2k2t2IVXXwW4PniPeByRz7jkZEksMyMkkbjuV1YcFSD7gjNb+bJx8k+vmkpyKf4GIgZD/ADv6d95vJEv5wqAftOE4EwX968OM2Mmz6c2UkR1G6EvNmhYJ/Qh5f8fSOU+vP1Hza0KGzqSGKXyOIlsLwGSxGp9lkUg8fY3Iz4X7HrOnoifpt+G0Y+8AlOYo0R/Rip7PtbOl79zqzqLXVLcfTUUn6Sr9J4AjmlCElu8lFCpyxGdCX+idpsnhSnJNN5onec8QhwUQqHPoHHI5z4c7Xb7nU7OxQ1dWhZNl9i9aZkld0SHmFFRe/wBA+dOT6Tf6mm9o0vP5RYiibxuFMiRlJEcgMjZ8Bd5rum1aMSXLd0wyqJCFQshh+pzmnk2uo60MxNh7P0V6CV3jWUvGEl73TvPIGdJbWlp6N6hS6aQK8lvfz3jKEjhQoE7z4uSELZ8IK0XTsK+a7FrdwlzZ0K/uZZIuAsvYPmC5UGxpdbaS7tKm2Sx2LFFWiMqjwlOSXH8QVzUm0esZtkoticIKv0CIS+sfae/vzomz1Vt5fiburloNdi1tKnXY+OMy2ZQ3MsjIe2JRmqs9H7foqLzb/WXJVnMMJUuk0EkYAmR+OF4z4T3qXRjiKaS+dtDJsoKUxHZamoBPReCCUDkjJUmgsRJLDKh5V0kAZWU/uIPIyEHprq15K09f7lW/IOQyfhE4H+TjPFNsNTbm11qZ0BMrVz9SX1H7RCrZ8VNhptzLfbv0UMM8PJkl4lMEwCqsP3wj965rLAqX9ZpbNyTwdoEtXvjk4T0CyFSJwmSybY0VgSzsIoXjCKbSzySHvAIjgUYUJROpv+xhyJZtrq9B1baowgB+Z0mhIJTPiJ1LufiDZvePX6iSeR6qQK6kzP6FCnYGPuAuSL62usePX++5rJbmn6E39e3tKVaPvaKi8HhNhIx/V86u0u68lKX6LrKthJrNp2Q8RtB88YP3i4HGTRUKcGl39G7clkAhp2dkHniimf2HAmC5s4NrDqbe9S3eqOJqgms0+RAk6co8qheXAzdUdNPd+I25uU578yVYLUaP4pEilkIVniI5dMhOz1NXpTUaiG3XHfFs7VG3FdnEB/a9iRZ+UZ1eus2Wu7L1DYdXVYmQSpxJXngliyWaWpqtbVp1pJnDyPFXjEaM7AAFiB6nCBNTqG9A32rLSInUj/jny2a8Uw/1FDf+50X04dgH7xcOrrebv9+7v7OecoVb9Objy1rMKTxPx+JHBBzp7U6ZJiDKtCnFVD8fi8Srzmj1lXZW+/6RdhqRR2JvIwZ++VVDN3Ecnk5o9ZW2dnv89+KpFHYl8hBfvlVQzdxAJ5OdH9PQS7KN47zx62uhso55ZZSE+upPuDnSmilpUmlNWq+urtDAZjzIY0KcKXPq3Ge3HHGdIaOnLuaksFi9U18ENoF/USCRVB7lYBss0erhQgELtapq8LxIT4Y/HL39wiXhQxzp7UVI9VJI+uSClDGKjSjh2gCqPGWHuVzpXR3KctyS5JWn18EkT2ZfnnKMvBkb7X9zlKtRp117Ya1eJYYox78IiAADOi+nJ9kz97XZdXWect+IyFOef5EWSORGR0YBlZWHBBB9wcUIiKFVVAAUL6AAD2A/st//xAAmEQACAQIEBQUAAAAAAAAAAAABAgMRIQAEEmETFDBAQTFRYnGR/9oACAECAQE/AO4iWA14juvtpQN+3GOTgKhkckEUBBrfb0v8Tg5XM+InYeGVSQdx0MjIVnVKkLIQp2qbN9g3xK+qVzQpUmqg2B7z/8QAKBEAAgEDAgILAAAAAAAAAAAAAQIDABEhBGFAQQUQEhMUICIwYnHB/9oACAEDAQE/AOImbUqR3UaOOfacr+GvHahWKuoVgbkEWsN8nHyFDX6S2Zo1PNWcAjYirDqsKI8nSEYbTtIFBaIF13sMr9EYqCJFhQEh7KPURkj2DnhP/9k=;" vertex="1" parent="1">
          <mxGeometry x="540" y="77" width="132" height="106" as="geometry" />
        </mxCell>
        <mxCell id="nUquxGuq074uo5o9FC-O-4" value="" style="shape=image;verticalLabelPosition=bottom;labelBackgroundColor=default;verticalAlign=top;aspect=fixed;imageAspect=0;image=https://th.bing.com/th?id=OIP.mvyp2PdlmIiLR9KJ4hocigHaCV&amp;w=350&amp;h=110&amp;c=8&amp;rs=1&amp;qlt=90&amp;o=6&amp;pid=3.1&amp;rm=2;" vertex="1" parent="1">
          <mxGeometry x="530" y="240" width="170" height="53.42" as="geometry" />
        </mxCell>
        <mxCell id="nUquxGuq074uo5o9FC-O-5" value="" style="shape=image;verticalLabelPosition=bottom;labelBackgroundColor=default;verticalAlign=top;aspect=fixed;imageAspect=0;image=data:image/jpeg,/9j/4AAQSkZJRgABAQAAAQABAAD/2wCEAAMDAwMDAwQEBAQFBQUFBQcHBgYHBwsICQgJCAsRCwwLCwwLEQ8SDw4PEg8bFRMTFRsfGhkaHyYiIiYwLTA+PlQBAwMDAwMDBAQEBAUFBQUFBwcGBgcHCwgJCAkICxELDAsLDAsRDxIPDg8SDxsVExMVGx8aGRofJiIiJjAtMD4+VP/CABEIAGoAygMBIgACEQEDEQH/xAAdAAACAgMBAQEAAAAAAAAAAAAAAQcIBQYJBAID/9oACAEBAAAAAOprTABOvNBZi6PJgAmIaYn81MhnG6tos3dIlHkhgxMQ0B5I+pBDuEWdlC+G3cmr22VbQANMVf8AnvgdgwHxsOvbBdCm+a2e6c2iYhoMLzpiLw+/wP3eDIb/AK79y7fnLIABM0XmDlAAAx/UHcfoExfQB8ckPcZ3JagAT3ekAAQJhQuE/Fks7rIPb+lPrAExNoDB8+7QyhQHSTHWSut7UDQAAAa5G2K+ND2+bcp7/pAACYmafFEHXRhyfMZCP7/hLGvY+Z46y+3pibT8fNy1lO8vbKvmtWz1Wkt2YyjOzcK3m2BANp4ygF86JYvoLQT8OgsJUjuRWCcd02uaBAAmublK+v8AXShnWSJee9//ABb3SbH9INpmgTF//8QAHAEBAAEFAQEAAAAAAAAAAAAAAAUCAwQGBwgB/9oACgICEAMQAAAAANs1WWiulcu85+kLlFusADetD7BxnMsY9/kHYum8s452jVtrALtv1H5Mkon5X9oxMzVdx4r3aEmgA9R+S5OGs35WFi5vzH6wipUACWjLtrrHGcTO5Z1yKlAAJeN2GDjs8pqy8X6jM6GlbVwDaNelo3LxLGRbr+0z8PoO6a/Mh//EADIQAAICAgEEAQEECQUAAAAAAAMEAgUBBgcAERITFDAVFiE2EBcgIiMxMkBVJCU0UVL/2gAIAQEAAQwB+nynjGdHsesE/j+HaHbjCXnuIJ57Yz/ab9uV7Q26iFb8WGP1h7vnPb5dZ0vyXuzEfL5FdHrYty2i4pmFXGEZg7Wfl2+Qp5cYe/77YyWY5/pNtVCve4pCuQg79c5wKhmY5YCF98tR/wA7Xdcj29VZ7KsVR9YwsHU9uJfLB2QMvgOPJgUemyL4SnGLIZ5wdP3efywdcfWlXWbUErTywhffPUf87XdQskTISfEcZlo97gR3HMeReNtkatkGK98mSOfW5R/Ilt1iAPd4fHD27CkwInpH1GIPbiPoD1XwDgWO4hy6bwIiM8+kUc+IPf4egPbsLLAiekfWMA9uI+gPXGi3zNCdVj+HVZ3+EKEseMwFskXJsoPmTmDYdwXl5C2BuWdC2Kx2ak+Y6AQ5fTsXgViDTp+/qv8Adtj2mpYRmnXrq+Nt/wCEu/xrTJ4l7KdYxbYz38Eu66totDMcYUl0da0OGQs4Ujjxte/fwS75VtMniXsp12tsZ7+CXVJsO10NZ9npHSAMYie45ymmc63zHe+U6uxbhUce7FeTj9pQ+y0Ukla9UKqwoiD9PZg/J1u5D275Rn5pLS+kzI/hAK0fNnX6cNBSpVos94/VzGMsZjLHfAlZ1pm64n9f6KxGVm+FWM8D6KtTN1ELSoemcX7PGdBmye+8TEP4H1+S6fNbdBuoY/0/jL/rPRzgWj5GLAeEWXQeh8ImQRctWXAxBmAAh/Y1nWGN0Y7/AL4qcAArAGEI4jH9eyrk7ZA6TYsEAbSqnVWpw2FZ49brmp6B4QcqFEmurqmUvEZKs4z2utfsaE3gzDuPr+WO+fwwFj5jHxkAmfYouMHHpQPsk4wCAAlgwCEcRj/sftWrlYZrPlgy4/x9qrx8sRS+Gx9zbpb/AIW4XI8E1ndiwkOW5eUMcT5LPMmdhcz0nxVqK+cSYCw/KAqmiRnmMFkVVW1XlxsLGGYP9hcX9PQAweycGvAHKeksFwP58xdLFGbm8hBTjOFpc1VGt8mxbGsIXKmklL4fOLDpZldwEDrlgUVnbVtMrlp9ka4YcsaTIvh8w8ccguKv8eWbKpYGDxu0slx5XsMEgIVFsVRsis2a0/uHe7vrOuE9LzuPfTcg6peGiBd7wP1dbbruuyxCxfGIlHfVexJfMrj+0X0Px6OaC4SGJn9zVaUvJ1+/c3U55Uf4w01xSQR10FJaHUsUfJ4q1jOPOnrzcq7c89YFJiua4z0phWQI1cAdaMZ/Td4Z1Rk3tWgqflHfXIsmJGsLxtpRVvR9kBHjdKdGg4xsK9GGYApIbHuitfrCWfSje/E420Yg6qPgTQOOap6rBc3Y8uH5NR0euKNOrV8LMFzf63xt8+2j/uOgaApsaudgv5EblWVVfTKRUQWGuD8fouL4bUYXzntji+9BrD1nr1vOKpLCzr6tSTbrIgA0Yptt5Jsb/ApQW4+tQ6PslvR28sL4afRSUk2yyIK+utS3TlaVuuOWFNYsgaDvlxXWWfUtN9EavyptAivyGys7x5aHXKMwtJ2uy0qS82wTlU8hpY2fSZnrp4YiDki2LrVTQUqxPtDSdNpNWcAS2eULe8r/AJJc648/JNH9TmoIYXVYSI4Yn1xoEIdKqcjHCHXNwQ4NSmwOGCY/qzjricARaUnOA4RlzcEXxKc3hH2Yxjv/AC6BjH6is9ekJODoymOMs8LTnnXH45lntvAAL7dcCCOAx6jGOdqovwx1yv8Aklvrjz8k0f7f/8QAQxAAAgECBAEHBwcKBwAAAAAAAQIDABEEEiExEwUiMkFCUWEQFDBScXKBFSAjQGKxsyQzU3SCkaGistE0Q3OStMHw/9oACAEBAA0/AfR8TC/irXnGTbq4ean5ElJt76/VXwbYiSSZC/ay2/hVwP8ADntbddZ2XXD+r8afhMwihyt0rrr8KzW/N9q16PJE2UoLC2dfKUQiNtBd9lzbZvD6hGuZ5HYKqjvJNfrC18kNEZEfMocu2lxXFibpeotqWac6m2jiwox4dLKfUOtcfidL7GWk5IkiMrvlXOXXS5r9YWhG0nEjYMpVBc2IrHytPIe4udLezqrk4ovFO8sT9Bz49R9P+T/jLXnCx9AbGPPXye8lsotcVxoV6A7a3NNPONRfoC4rhYd7qtumda844fQG3DzV8nNJly6ZhXGhXoDtrc1NicfEPDPpUQ4br3MmhFSQiNzEBdlBvua7plSVf3EUs7xLJHfJME7YB2109JhoJJXtvZBfSsVkYau0qhWDjnbfwq9787faliMeXXLlNXB7W4rMzc6+7b02Xo3vzdqvftb7UIuHl1y5TVwe11bUZpJTJwuJJeTfpaViZM8sjdpj12GlZ2XiQ4dmQlTY2bau2mcNiZR3aaIKhQJGijRVHpH5OxIHtyGjEv3eixLrBh075JNBWGhClvWbdm+J19MbgjwNYHFSwn2KdD8R5ZCbuRfKqjMxt12ArjcKaKVQskTG5W+XTnAX+dCGi5OB7ROjzf8AQ+oY8LDiT6kyDmMfeHk+0bVnzYad0yCTL1pfcUshk4UEKwoXbdyF3b5sb/Tz7HEkf5UXh6zVGgREUWCqugA+oTpldT/7cdVM30PKeGlksgPZxEa9H3hXVPn85IP7ZaxrdHHSRhsRRPMnXoP/AGPh5O86V+iw657e8dhW45OgbQ/60g39gqNQqIoyqoHUAPqXDznD5xny+7X6fCO2Hf8AksK7p+Hif6xTaENyZA2njRO0MEUP3XrvxU7OP9osKhW7WCxRqPGpBdJEbMrDwP1FiQt9Wa3qqNTR7UsLqv76eIlWU3BBwq6itgWPSPcoGpPsr13gkC/dUgukiNmVh4EUO053PcB1n2VfpnDvl/vUqQMkiNmUjjLUQxLSSMbBQJm3pJTG11KEMNdmr9BGpkce0Db40+ixTKYix8L6HyEXEQBeS3urc1nKHmlSGXcEH0USM7exRc1CwXgq2W+bVYgepFG/fVuZNASrr/f41hvOkLDYjh3B+IrCbRq1uYT9HEvde12NW5ssLFZF8c3X8anLcI9WfJnVx3Zl6Qrk8tzVNvow2RVXxkIuTVtHQlZB+3e9QJDkBbMdZ1JJJ7zWCu88nYXO5bPJ3n1FosIopG1Zppd5W72sL1jfpo4pGORVbYt6ztvrXEAkTDfmwPVZfXPUF1qGDKgfVru2SLifaA6VYuR2iiZyM1jbiSEaknqFKSQiCwudz7fRTQvGT3ZxamxN0Z9F4qjIyE+NrrSi5dj93efAVCkn868KNPbl1NSyoqytooePo3+y6nQ0q5jKzALasEM9yOyqcKO/i51rFNYTnZedniY/ZINWvxjIuS3vVIkBSRGDKw4y7EVynd9utDkLp4rbnLUTR4yIprxEUENb4GuCuGaZbXsvNXheJG7HasR+aiMoPCvuIwdS32q4+G/ErzQfefSS4Rs7AatZtL0NqkhLvlFszE7nxp1nVntziFtYE+FDapZZmkYCxchrXNcaVM9udlte1+7yZR/y6iYshIvlPnRFxScpvlHdeNDpS4prIoygfAV8pwf1V5xhvxK8zH3n5/8A/8QAJRABAAICAQMDBQEAAAAAAAAAAQARITFBEFFhcYGRIDChseHw/9oACAEBAAE/EMTExCpiNfuYhUxGszFzwFKLjtZWw/kuUqqvUKzamJiiYmP3MTExUxMTEx9B0eixRsJcRgggBALUXz8WJfk9MZV31K9fbGAuNaLjwsVVe171Nzzz/vQZLmKZOMZk3ROn968fYOjHOAAB3SAHS2qkG62vAiaSztunvLYmlvNsIfxrdbzJY4mjems9bhdmiqgHkQ6GgCXOUIimqnkovUEvgNEKlELYz5pphZ++vH2DozD1pa80+cZL3uDnlUcmsaisTeWVOubkk1VILDsBWCvEshcx3cKfluD7lWAXLuofa/DJzrh9q0ViL9Z23XDuJMQ0DmMpag/vhr6xo6paqcb9OXRx9g6Y3qZtPZblqiUsRgZhbXcZYBbsoxWQZetRqHoCZi0qoINa7WjQ+xCLCRtTwAlSHig0di0cEB8gathZ9alBRcncWlVAk3BGtjS9iPbgB3V0tj7RrONaO1RBEY0DReA8GWFu4uzPNHK5lD7+gNAdOPpuWy4LcuORWv3VUA12/wAPsPRrMUNs+Iu2ed/neX5dgKly2K1Lly5f0G/70JANLSFIz5Z4k1eEE62zZvFuqylIG2AA4NVoCaURsPoZjlABVWgA2xqwPes79/p/3nrx/fptlstgstiv7jQ+w6g7AOofyojMzY/huKXqJUbcUunhlP6kJqLlgbfo4VQAVVoA7sKrBgvc0kIZ68xRGgCiWy39y2Wy2pbLZbLZUqVAlRPHeOOVzxsR2IWjTGL/AEFpm9IlonT8xkSKQTUmmt/k5I1WiEfm+RdEcB3AHyx/Mw15aXysOqEcv+BZnIoODopACU0YlSvHeVKlNalSpUqfEx4nxCr4nxGvHMfaY+wWws27VTLY6rlrvmjDCIaQD3FjCjNnuyA8tyZ9gEgVCiQB1bVcxc0AlT5ekOQwz4mKNT4mPHMx4mPEarifE+J8T4mJiYhUsgWEFqdgK54IyWOj3jq1AOFcrkhCKK7d5C8IS2SrR8kClM3skObAkR/oYtmjWt2CwG0aV/6sGRzYlrSAJbm6VUQ6sxkKJDkRJSAIKJn0sifMOyyPM8DLP3LoTrZaUwHuwOw33T94iXMVMTExMTMzMwy/sTwJPZ34iB43LDsWzm6Upl1YxAeHKnplGcsNEx9hhjWNLhixxqGaK07iHcBLbxeXTDaxg/sq7kCYqYR/YGJ6Lwjy2AtYEllSy9gqkqVmqVOPt9RSfqObxdAkGVxRV7PvcM1glSb2hWPFCBVq9Zm73IGAdaJgqQFR4AhakrXNp3XKxw/szMzMz9BviLnOk0W/tcHQ1sIaPBUJpi2VlwStEy3Fiyx9wppNHmWWQoJfkTdCsUEQDjax5vgNxF/3URodrGstV3pa6fdReGUKYsTzWaqMHL0DLArTsZWy/wAtSD9dhr6kN7UM8ZCnge041CbJ3Kcjae3zJr/VhCHT7jj7BHUroIyYe3miGV9nh6RbAzFujXtQURHIs94lpmzSw4IEd1aKVNoEKM2quwI5orClbqArNt7sgWc/Tr7bTFYSmVCqQSlcsSC1AgWtfcn/ABOzr24+n//EADMRAAIBAwIEBAQEBwEAAAAAAAECAwQFEQASBhMhMSIyQVEUIGFxBxAwUhUWNDZCdYGz/9oACAECAQE/APkt3Bl7ulHHVwLFy5PLufB1buBr9TVtLUusPLimR2If0UgnXFr54duIKsMxE9cdOo/J4pYghkjZN6hlyMZB9R+hwtwhBxDRzVElU8JSblgAA+gOrLQJa6GGkSQOIThXOQTnrpP6fuudje/7dXai/iVunpHcIJ/CzDJIyRriXg2msNHFUpVPIDOqMCuOh1xFwzDfbFTQ0qoJYlQwP6Aeur9whdeH4VnqTC0bMFBVuuT9D80Co88Sv5WdQ32J1abHbrXTBKJGhR8OQG7nAGeuhSIucO/X66+Dj27d74++jSIcZkk6duuq2zW+4osdXHz0VgwVzkZ1xbxQOFYaSnoooi7Z8B7Kg1euIbnf5hJWSdF8ka9FX5+FrrHd7JSzhgXCBZB7MvQ6rpjyXhhnjjqZEcQ5OfHjIOPXGrNFcoaPbXyiSXmOQchsLnoCQFBP5Xe70dmo3qalwqqOg9WPsNXq7VF7uM1ZN3c4Vf2qOw/Qtl0rbeJUiaXlOMuqOUIx/kCOx18SklTHVJc50mRgyPMGLKR7Mu7Vr/EaiSmC3KWJ5VHngWTxfdWUY1cPxShxst9G7uegaToP+Aau94uV4qDLWyl2GQE7Kv0A/QtVvgq0qKmqlaOmpgpkKjLMWOAq59Tq2pZmpbrLQvUK4t8ytFNtJIOPECupbfZbYUp7hJVPUlVMgh2hY9wyAd3c6HD8cdXKZajFFHAs/PUdWjfygD3OqY2VrjbjRCrV/jIgyy7SCu4dQRq82iJa6SPml66rrGMcSkbUR2OC59zqC0WSorDb4nrJZ1yHnULy1I7nHfaNUtqpUjqKmtqCKaGcwgw4ZpXHouemNT8kzPyQ4j3HZu82Prj5eGY0r2qbXLkR1Shtw7o0fY6rrSvDFqqZUlM8tWORuI2hEPU4HXvjX8vR8SxU1yacwPOgEqhdwJQYyOoxnGkmSrvs1lKYpmgFKuD1Xk+IP986n4XSy1VtmFSZS9xhjxs24Gc+51eCgdr1GgSopbg0TAeWUIehPsdVtlRrbKaWX4VJo3mmCrl5CQTgsT5fpo/2rF/sW/8AMfJ//8QAMxEAAgEDAwMBBAgHAAAAAAAAAQIDBAURABIhBhMxQSAiMlEHEBUwM1JhcRQjJDZ0kbL/2gAIAQMBAT8A9i5dZ2G01b0tVM6yoAWAQnVf1vYKinqKRZpBLJG0YUxn4m4HP766JRR1LQEPETkZ2liT7p+YH1JJHIWCMrbThsHOD9x1Z1jL03VQwpSCffA0hJbGNpxrqC4pdrhLWPFIjSx++qlcDawXjOj2vtEfi470f5cfi/tnzqxV62q4Q1iJJIYYwyKxUA+6ceNdMdZz9Q1c1O1IIdkIcENnOddO9XTWDqSvevkk7EskvdTGTuB4xrp/rGz9SSyRUZl3oMsGQjj2pmZInZfiCkjV76mutzq2NcIpWiZ0XcnwjPI010lcANBTnC7R7npr7YnM3dMMG/cG3bPUHOkusqZ2wU4yMfB6aoOpbna3d6Ix07uu0ui8410Z0kesZKyuucsuzeAHHBdvXVk6ftfT9MYaGEIG5Zjyzfufb61s8llv9VGVIjlcyRH5htUFI3cSqnppZaOKRDOVBA25AIz8zq/TWie4M9rhaKDYo2kEZYDkgEnA+qwWGv6hr0paVCckdx8cIPmdWW001ktsFFTj3Il8/M+pP3FfbqSsMbyrH3FOELqGBz6EHTUu6mkpZaCF4ZFKuqEBWB9CDjV2+iuskqi1r3Rwkk7Khlyv6AqWzq2fREEIe5VwKjkpGMf7J1abPbbNSrBQwpHHjyPLfqT9xX1ssDwwU8YknmJ2hjhVC+WOq57otVbo6tYWQ1iFZI8jkehB1HW3SvDTUawLAGITuZJkxxnjwNfbMj08Yjh/qnmMPaJ4V18kn5DU4ua0NcKowMn8LJgxhgQdp9Dq13OQ0SSdvZSU1Ku+RviZlXkLqa5XaCmFbItMkTYKwnO8g+AD+bU9xqGeGClhBnkiEjdzgRqfnjUQkEa9wqXwNxXxn2b87USw3CP44CV2nwyv5GqK5tf7jAjxiKOn/m7QdxZvA540b5JYZJ6BYRMkLHtsW2kA84OpI3prRFdA+Z1mNQcjg9zgrqK/vdaavhMAjC0UrZ3Z5xq1hii2qRy8NRRCRSfKbxyP1GqW7ulcgqIxUPFIsURJwqAcZCgedL/cEv8AhJ/2fY//2Q==;" vertex="1" parent="1">
          <mxGeometry x="540" y="360" width="160" height="83.96" as="geometry" />
        </mxCell>
        <mxCell id="nUquxGuq074uo5o9FC-O-6" value="" style="shape=image;verticalLabelPosition=bottom;labelBackgroundColor=default;verticalAlign=top;aspect=fixed;imageAspect=0;image=https://th.bing.com/th?id=OIP.zEcUVR_Dy2h19HUi4XBJPAAAAA&amp;w=244&amp;h=256&amp;c=8&amp;rs=1&amp;qlt=90&amp;o=6&amp;pid=3.1&amp;rm=2;" vertex="1" parent="1">
          <mxGeometry x="546" y="522" width="120" height="125.9" as="geometry" />
        </mxCell>
        <mxCell id="nUquxGuq074uo5o9FC-O-7" value="" style="shape=image;verticalLabelPosition=bottom;labelBackgroundColor=default;verticalAlign=top;aspect=fixed;imageAspect=0;image=data:image/jpeg,/9j/4AAQSkZJRgABAQAAAQABAAD/2wBDAAsJCQcJCQcJCQkJCwkJCQkJCQsJCwsMCwsLDA0QDBEODQ4MEhkSJRodJR0ZHxwpKRYlNzU2GioyPi0pMBk7IRP/2wBDAQcICAsJCxULCxUsHRkdLCwsLCwsLCwsLCwsLCwsLCwsLCwsLCwsLCwsLCwsLCwsLCwsLCwsLCwsLCwsLCwsLCz/wAARCACoARMDASIAAhEBAxEB/8QAHAABAAIDAQEBAAAAAAAAAAAAAAUGAQQHAwII/8QASRAAAQMDAgQEAgYFCAcJAAAAAQIDBAAFERIhBhMxQRQiUWFxgQcVMkKRoSNSYnLwFiQzNYKiscEXJWN0dbPhNDY3Q0V2kpPR/8QAGgEBAQEBAQEBAAAAAAAAAAAAAAECAwUEBv/EACwRAAICAQQBAQgCAwEAAAAAAAABAhEDBCExQRJRBRMiYXGBkfBSsTKh0eH/2gAMAwEAAhEDEQA/AOt0ptTagFKbU2oBSm1NqAUptTagFKbUoBSlNqAUptTagFKbU2oBSm1NqAUptTagFKbU2oBSm1NqAUptTagFKbU2oBSm1NqAUptTagFKbU2oDNKxtSgFKUoBSlKAUpSgFfK1obSVLUlCR1UtQSkfEnasmue8Vg3C8LYU55LdFhlltxKXWA9ILjjinGV+U5AQPUY2Izv30+GWfIscT5tTqI6bG8k+C4qv3DaFFCr1aUrzp0qnRgrPpjXmviTfLdHXpxLfCf6RcKK9IQgdftNA599Oa56h5pvSzIaajqV5U4CBFdP7DhATk/qqwfjXw3cGLVpTCuEFLIKibe+8XIwycnkcgKcbPwBT+zXo5fZjhHyUr/s8rD7Zjkn4Tg18+V/R1OJMiTmGZUR5t+O8kqbcbOUnB0kHuCDkEHcEYOCMV71ReFbyxKuqvCtutRrzHmSX2HhhTNzt6mGnVoKfKQ6hxsk9yjOAVGr1XkyXi6Pdi7VilKVkopSlAKUpQClKUApSlAKUpQClKUApSlAKUpQClKUApSlAZpSlAYpSlAKUpQClKUBjFUniqAqC7JviHo5jvpYRMjyHW2HS60goSuItZCVKIAHLOCdOxycKu9URv/WN6vtxlDWuBcHrTbELwURGI6EcxbQIwFuKJKldcADoMV2wZJY5qUHTOGoxQzY3DIrTKxcJUaVaZ5ZUHEqUxHdQtJDjSlPIyl1pY1BQx3H41W1KaaHmU22PcpQK6m1wxa+IHHrjdUFxCHHIkJmO4uOpLcZ0oU5JcZIcUtSknAKiEjAAySTOweHeG7aUrhWqE04MYd5SVv7f7VzK/wA69HJ7R83bjueVh9lLEnGMtisfR9ZXmWHb3KLgXMS8zbo7iVo8PDLoK3ClYBy6UJV06BO++BfaUrypS8m5M9qMVFKK6FKUrJoUpSgFKUoBSlKAUpSgFKUoBSlKAUpSgFKUoBSlKAUpSgFKzSgMUpWM0BmvN55iO088+6hpllC3XnXVJQ222galKWpWwAG5r7qkXx76+vDlnO9mswYeuqBnTOuKxzWYq8bFtsYWsZwSQCNtqlexG6Pt3iW+Xcn+T8ZiLbiSE3a6NrWqQnca4cJJSrHQhS1DIPStRdruUg65vE/EbrhHm8LLRAZJ9moiAB+JqV+QGAAMbAAbAAelK7qCRwc2+CJTaJjRCo3EvE7Sx9nmXDxTefduShSa1kfyltLs5+Q01eY0p8SpLsBpMW4NuBpDSnBFBLS8hKSQnBJz67T9KviuieT7PG1363MpRKRIbcs057C5H2fATV4RiSlXmSlZwFZ+yrc+VeU3D/Gud3O3ONOSLtbWULlKaKLrAUB4e8w8HmNOo6c0DOhWN+hzmt7hm8tRnrdaTIW/arlG8Tw1LeVqcQ2kZVbn1HfUjB5ZPUAjqmuU1vZ2iy70pSuZsUpSgFKxn2qAn8YcL29xTLs0PPIOFtw0Kf0HuFLR5M+o1UBYKqfEvGDfD86JDMFUkOMNyX1h4NlDS3FN4QnScnYncj89vWLxzwnJWGzKcjkkBKpjK22yTtusZSPmRVL+kVSF3iMtBSpDlojLQpJBStJeewUkbEVUrMt7WjrYIIB9QD+NK+UnCEfup/wqLufEVgtB5c6Y2h8gEMNhTr+DuCW2wSPbOKholqVVG+PuE1rCVOy2gced2K5pHx0ZP5VY4kyFOZRJhvsyI686XGVBSc+hx0PqKEuzYpStC43e02ltLtwlNMJVs2lWVOOEdeW2gFR/ChTfpVRP0hcK6sfz8jONfhTp+OCrV+VT9uvFouzanbfKafCMcxIyl1vPTW2sBY+YoS0QfEHGDNhuEWCqCt8LaaffdS8G+W244pA0JKTk7E9R+e1qrkv0if181t/6dD/5ztdXcdZYaceeWhtppBccccUEoQhIyVKUdsCq1sRPdnpSoi1cRWS9OSmrfILi4wSpxK2nGyUKJSlxIWBlJwf4NSi3WmkLcdWhttAKlrcUEoQkd1KVsBUNH3SqrJ494UjuFtDsmTp2KojBU3kdcLcKQflW5beLeGrm4hliXypDhwhmWgsLWfRJV5CfYKzSiWiepWM0z7UKfVKjnL1YWlrbcucBDjailaVSGgpKhsQRq6jvShLR7TZ0C3sqkzZLMdkEJ1vLCQpRGQlIO5J7AAmoKRxfDH/YYM6WOutYRDbI/Z8UQv8AufOqRxTLlyZNruRkPpdVK4gZjBCylMZmNJRHQloDy5ITlZxuTvsAE+Vumz5yH21FhDjPL1PpbytYXqwQ0fIDscnce1ero9HDMryWeN7Q12XT7Y0tubOi2/imzTnWozhkQpjmrlxp7XLU6UDUQy6kqZV67LJ9qrPDOpy0tTnB+nu0mddpJ/WclPrUCfgkJHyrQZZZTc+GWlqU5JevEZaOavmPLbQy+VOJT+qNiSEgCpDhlSvqK1srGl2Gl+3vpPVD0V5bKgfwB+dctRp1p8vgnZ9Gk1UtVg941RMUpSuR2FYrNKpTIJBBHUHI+IqiyIy23OK7fEWUu2u6fWVpUnrHdW2m4shvP7Wof2qvSQVEAbkkAD1J2qoRXG5F34qmoOWXLr4dCj9lSIDCWFLSfTIP4ViSs1F0dMtU5FzttruKBpTNhx5WnrpLqAop+RyK3arXAiXE8I8NhzIUYi1DP6inlqR19iKstfMfSKUrBoDnnH3EchharLDdU0OSly5OtqIcKXBlMdJTuMjdWOoIHcg+Fj+j0SI7Mq9PyGlPJC24MUhtTSCMjnuEE6j3Axjpk1Ey0okcfBuThTauIGErCxkKS2AW0kHtsmuw1rgwvie5Qbj9HNvLK1WmVIakpBKW5i+cw4R2KsBY+OT8K5vLblMKeiyUuIdhlUZTThJLOlRJQB0xkkjG2+e9foY1yD6Q0MJvyy3jW7AiLfx1LmpaBn3wE1UySiki7cX392yW2OiKoCfPy1HUd+S2lILj2D3GQE+5z2ql8NcIy+IUruU+S8xAdcWULQdcqcsKIW5zHM4TnIzgk+w6+30lKc+sbenJCU2fUnthRdcCiD67CumW1qOzb7czH0hhqJGQzp2GgNpCcVOEXl7lUf8Ao54fW2pMaRcGHseVxbofTn9ttYG3rgiqcw9fOCL0UPAlvKFSG2ySzPiEkcxvP3hvp7gjHQ+bs/8AHWuf/SShnw9jcIHPEmS2n1LSmwpQ/EJ/GidiSrdFqul6iW+zO3hBDrZjtuRBnZ5bwHKHwOQT7Z9K5fabVeOM7nLkyJSkttqSZ8xSdRSVDKY8ZB8ucbjsB2JODIXNx5f0f8IaiogykIJOd0oRISjJ/DFWvgFtlHDUJTYGp2TOcfI6lznqRv8AAAD5U4Jyzw/0dcL8vQF3LmY/pvFkrz66dOj+7Xvw5we3w/OlzfrByUp6OYrSFMpaCGy4HCVlKjlWwx0+G9Wv+OtKzZukjkn0hjN/ZGcf6vh7nOAOc7knFfHEvE03iKU1a7ah5UJTyW4zDYIenvDcLWOyR1SD0xqPTyen0h/1+1/wyL/zHqnvo+t9kER24tOpkXVWWZWtOFwkkkhltJ+6cZ1fe/s6U76s5u26JXhPhhFgjuPPqS7dJiWxKWgktNISSpLDWR9kZyT3O/TYUniW8XHiW8ItFtCnYqZBjQ2EK0okOozrkOnppGCQT0Az1Vv1ScpxEK4LazzUxZKmtPXWGlEYrl30coZVfJC14K2rU4Wc9cqdbSsj3xj8ai9TT22J+B9HFpbZQbpKlSpJAK/DuGNHQcbhsJ85+JV8h0qE4q4Pt1mieOiTylvWEeDnKC3XST0jrSNRI6kEHpnIxV74g4it1hjhTx5st1JMaKhQC3O2pZ7I9Tj4ZO1czYjcSccXRx1bmGm1aJEkpPhYLfXksNk7r9Bn3UfUr5I0lsi28AX2ZPZm2uWpby7c2w4w+olSiw4VJDTij3SR5fb4Vr8ecSvxlGywnVNKLSV3F1sqDgS4MojoI3GRgqxuQQO5q4WizWyyRExIDWhBIW84s6npDuMFx5Z3J/w7YG1cxdQmXx+lt/zoPEHmSrcEMJKkAg9vKKnJXdUYj8CcVPMMumPFZ5iErDTrqQ4gK3AWMbH1Hb5UrsOKUsvgik3vhOdIE1EIQpMORJenoizFvRpEOW8Sp1yFMZCsBRySlTZG53wcCnQbfeIblwjJdRFeC2mX/FMBydGWgFQAbSfDnIUClYJBG4HYdnqk3t76wWp+IlsumU3a7ccZ8W8pSk6lEfcSQtX7qFH71d8OacH8Lo4ZsGPKqmrJbhm12eNBjzYjCjKlspMuXJXzpjywdKg4+oZxkHAAA9BUTOimyXt9eALVxDJS6hfRMS8qSEKbV7PgApOftAjbUKtsGIiDDiQ0EqTGZQ1rUMFZSN1n3JyT8aToUO4xJUGYyl6NJbLTzavvJO+QRuCNiCNwQD2rj5O7O/iqorvdCd8rcQ0gY3UtatISP47VqmRLbnTIkm2TI7LD7MZmevSqHKdeTqQGzgKwemcEZwCQVDPy2blBkeDfxJn2h5mWwtZSg3OAtLjKHCo+UO4Kkr7akA7BzI9rxOm3iKqDGgyI7BUiRIcmqYQ48qOoPNxmEtOL+2oAKUSABnGdWU9nJ7UclFLk85FxtkWTDiSJSGpExnxMZC0uaXGclOvmBJQBseqh+dbRGDjfI65r2n3uyvwJDUZPiJsiG9EYhchYkJU6jllt5Kk+RA21kkAAd+8DcbsbS1CgMNifeXIzXIYJIaQhCAgzJiuob22GQVdPclK+SSh6H3fbqu1xW2ouF3e4hbFrZzukkFKpa/RDe5zjqPY4gDDcjW6FZLedUy4H6qhkkhSnHgTIkqA3wlJWtR7ZFfbUdMZUy6XKUZE95KTMmLSTpRkJSxGaSNk5wlCQMk4HsJ20x5cN2TdZDTTU4s8lJmH+bWiKcOcjZSQp5Wyn1awBkJGdJFJN8dlikXeFFYgw4UJgYZhx2YzQPXQ0gIGfwrYqpIuXECkl+HcrZLTnZDsYCOo9dPPiulST6HSr4Gpi1XuHcUuMrHhbiwoNy4EhxsvtLxkKRpOFNqG6FjYj0IITxcXHk6qSfBK0pSsmjl3H1pkQ7g1fI+pLMlTHNcR1jzGdIbWdsDVgY9wfXewWPjq0TWW2ro83BnJAS4XcpjPEDdbbnQZ9CR8+tW19hiS06xIaQ6y6gtutuJCkLSeoUDVInfRxa3nFOW+fIhpUSeS4hMlpPsgqKXMfFRq2mYpp7ExcuMuGoDK1NzGpr4SeVHhKDhWrtqcTlCR6kn5E7HnloiXDi7iNUmSCppEpqbc3Eg8pptshTUZJJO50pSkZJwCT72SN9GkULSqbdpDzYOVNxWER9Q9OYpS1D5Vd7fbrfa4zcOBHbYjoJIQgHdR6rWo5UVHuSSat1wKb5Krx9ZXp0Fi5RkFb9tDvOQgZUuIvBWQBvlBGfhmovhPjSJFix7Zd1lDbCA3EmYK0cofZbe05Ix0ScYx1xjJ6RVQu3ANkuLrkiK69b33FFbgjpQuOtR3KiyrofXChUT6ZWndolX+K+Fo7RdXdobgxkIjOB91RxkAIbya5jeLlc+MLzGjw2VJ15j29gnVyWicrkPlO3opR9gN+qrI39GXn/S3twt53DMNCFkfvOOKH92rfZuH7NYm1ogMEOOgB+Q8eZIex0C3D29AAB7VdlwSm+TSufDrUjhlFji4K4caOISl4GX4wGknt5twf3qofCvEy+HXZUGe08YLj5LqAn9PDkjCFnlnGQcecddsj0PX8e1V2+cIWW+LMhxLkaaQEmTFKQpYAwA8hQKFY+Gfeon6hrtHuOK+E1NF4XiEEAZIUspc/+ojXn5Vi08UWS9SpMSC48XmGy9h5pTYdaCggrbJ7ZIzkA79Kqn+jJeve+HR/uI5n483T+VWbh/hS1cPKfeYXIkS320tOyJJTnlhWrQ2hACQM7nb57U2Kr7KN9If9ftf8NiA/N10VpzIl94Ku7LzLhKFavCyMHkTWNipl5APX9YZ22IPcXy/8HR79cIk5yc8wG2mmJDTbaF81ttwuDQtR8p3IJwanrjboN1iPQprIcYdA26KQofZW2obhQ7GrfRPHezUsd9gX6GmTG8ricIlxlkFyO5+qvHUH7pxuPwHMrnGuPB3EPiIYAaJfdt63BqadjughbK8Y3T0IyOiT3q+cNcJN8OyLjIE12UuU20wgKaS0G2W1KWAoJUcqOdzt8N6nLhbbddYyok+Oh9hRCsKyFIWOi0KThQUPUGpdFatHGoDLV+uTz98vLMVoqS7LfkPBEqRnOGo4I0gds9hjA/V6C1xZwNaRCtkFZEVBQ0lUNhSozOpQGpxxWCd91Eauu9R0r6NIylqVCuz7KD0blMJf0j0C0KQfxHzratn0d2iI63IuEl64LaWlxtpaEsRQtJCgVtoJUrB6ZVj2qumZSaLvXIW//ENH/uCR/wAtyuvb4qpo4MYTxJ/KDxzpQJLk1MTlJGH1oKDl3VnSMkgafnURtqy2UrG/vSpZbIniOW7DtMtTC9EmSuNb4qgSFJemvIjBacd06ir+zUPbm2f5QWqGhIDFtskqXHT6OOvogpI/dQlQ/t+++xxmeXCsslWzEXiG0PSVnZLbRWpkLUfQKUmo+U3cmJMG6W0NKnwA+yuM+sttTobxSXIynMHSoFIU2rGARg7Gukd4s5ydSRd6VVxxra0eWbb75CeGym3ra+8Cf2HYnMbI9CD/APg8H+J7xPTyrJaJEcKylVwvzZjMtDI8zUQEvrOM4yEjPcisU2btI2L49EF1t6SttLkW3T5ExaiEpYivOMob5qzsApSTp3+4fn4NuIcGUBzSdwpaFICh2wF4V+QqIhRB9bTozrrst6O3b7hKkSSkuzrlM5ml9wDyBLSUBDKAMJySN963mJhlSXUsFHhmGgpSiCXHluk8tQVnZOElQGCSFJO2rFfRDZUcZb7m6VqSFKwpzCSQgqxrKRsnPbPSodi0sRxJlTpRVLlOeInyAkZceUcBDaQCohOyWkjsAAMnfedmts/WZLSliBFElSQdJdOlxRQkn0KQkntk+laa0zmVwlS79NZnyApyO1BZhiMFtpC1iLHdYWVBAV3JURuAd8ab7MUz3Nmkxbdeb4+FNyoFvnyrJGdDSzEdbYWpMqQMFsv/AKowQgbbkkmkM3ZC1JNxj+JOtTofK1uqC3FFxSyy8opySSTpI69OwvovMllhcPiPkSrRPbMQ3iGnkoSiSnlAT2Qo6ArOA4klIJGQnrVcunAN8hcxdrcRcYyQdDThQxPQnGACThlePXKD8a6aXMsc258nDW4JZoKMOPwefipLYRc4UcI5LXiFqdXoXKipSXFsqaazsoZKdStjgj3krsyw5cuB7k0EqUq92+CXCNzHkK8U0cjukpOP3z61FSo1+j2iOybcYz0xpq1xEXBwJkPvvI5K+TGjlRAQNS1KUpIATnB6GenMhMjge3MKyo8QwFtA/aMe2RnXHF4PoNOfjX0a7JiyNSg/qfL7Mw5sUHDKqXX0L/Sg7fKleQe2fKlJQlSlKCUpGVFRAAHqSdq0xdrOV6BOjatx/SDGfj0/Ooq4By6XZq1FakxI7YflhBwXFYBAJ+YH8bSZs9m5XK8EwE6cApQAv5L+1n519XuscEnkbt+nofB7/LklJYUqTq32/l/030kKAIIIIyCDkEHuCKzUTaYk6AZkd5aVREuaoaivUoI3yFDG3avM3xx1bogW+TMaaUULfbKUNlQ7I1dax7hyk1DdLs6LUxjFPKqb65JqlaMG4x57bq2wtC2TpeZcGHG1YJwRWgzxAqS2DFt8l94FRdabUnSykHCStwjGT1AAJqLBkbarg09XhST8ueCdpUIjiBt5KUxoUp+WdfMjIAHJCTjLjh8uD2/6VtW+5pnKkNFlxiRHIDzLuCpOc4IIx/hVlp8kU5SXBmGswZGoxld/v5+XJI0qDa4gMhJEW3yX30qUFtNqTpbQDgKW4RjfsK24F0anKeaLbjElk/pWHvtAdMg9/wCPWk9Pkgm5LgsNZhyNRjLngkaVEPXr9O7Ggw35rjJ0vFlSUNoV+rrV3r3g3Rmap1ktuMSmf6Vh4YWkZxkeoqPBkjHya2LHVYZT8FLfj9fBIUqHcvS1PPtQbfImCOstvOoUltsLHVKSob1swLkzPS7oStt1leh9l3AW2rtn2pLBkjHya2/fwIarDOXhGW/7+fsb9KhlXxTjjyIECTNQwoodeaKUNah1CCrr/Hz3IFxj3BCy0FIcaUEvNODDjavQj/CksM4K5IQ1WHJLxjLf949fsbtKUrifSKUpQClKUBp3Jm3SIE9i5cn6vcjuImGQsNtJZI8ylLJAGOucjHXtXNEX1q1LEVq6Qr7b0qS1EeXI8HckIGQEKclITFdxsAQ4CfyqzXki7X/6se0qt9oiw5bjDgy3InzFuBtbydwUtJSSkY6rz90VljxFxt6Ji4AXbJTetpDjiJDjkdWQlx6No0gKG+ApRAO4yMDpFVvZzk72ojk310kJTw5xcVkjCRa0hJz35he0Y981tso4xnnEezxrU0SP51e5CZTwSeqm4UTAz6BTgH+etHavNiy5w+4iRb1ZWuzTnlBgZ3zb5JyW8/qnKdz07SbfG0IIWJdl4ijSW9lMC3OyNav9k7Hy2R7kirJyQSiyJbgOWniosOzpk1VxsLUqTIlqRqU/GmFs8tDYCEpAWAlIGB+Z0+ElvkcQsyinnxL0YawOgajRmYzfywipFpyfdru7fJUN2BHbgG222JJKPFFpx0PuSJKUkhJOEhKdR/zMMh2TbeKuKn1IT9UPi0O3JzO8N2UwS1JUB0byFJcPbUCdhmtLZJsy926Jh3xLUGDeY7DslMJ+8W2+xmU63/DmatZeQ33LZGSO6Vmvgpss+2vOwnWJkZaWQgIeU+loBYUlAbWoqRjrjAI+W24F3a1S5M62RjNamKQ5craHEtuLdSlLYlxFq8mspAC0nZWkHIPWJuZst3WXGOAbiLitWTJnlu0MhR8pcckw3uYrHcAZPzqW0WlJJiypbal3q0OIU5B8LFllmQVOhIml5p9klwk6V41YJ+8fWtq1SuL1RHrfGuUBtu2TZtpadct70qcWojhbbUtapAbKtOn/AMvt37/FktEawQpLkl8uvOKTIuMga1Z0DQhlnWS4QkeVAJJJPvgTdv4WjvRC5dV3DxM5+VcJcVm4S2I7bkpwulrRGcSDpGlJ33IJ70lS5JG72IV1y12mUZFzuMu5Xx5JaabITJui0qGeTDgxwENpVjP2Ug9yam7Habi5NVfbu0GJHh1Q7VbwsOfV8RagtanVjyl5zbUR0Ax7JmrfaLNakKRboMWKFbLLDSELX++v7Z+ZNb21c3K9joo+orFZ2rBxWTRANKEfiaYHNvGRk8knuQEbD/4n8Kn81oXG2MXBLZKlNPtbsvN/bSeuD7Vom38SOJLK7wgNKGlSkMAOlPx/619kvDMotySaSTu+jzIe80zlFQck22qrvpmZFz8XH4hZjtK0w47iOcFApWpQKTpx8DW1ZA2m1W0N4xyQpWO6ySVE/OvaFbokGMYrScoVkuqcwVOqUMErqPRabnDLjduuYZjLUVJaeZS6W89dJJq3jlF44uld2+9jKhnhOObIvJ00663vb+j4i4HEN75Y8nhG+ZjpzMJ6+/WvvhgAW3UBuuVIKj64UEity321uC3I/SqekSVFyQ+59pxRBA29BX3bYAt0URw6p3DjjmpSQk+c5xgVrNnhKEoJ/wAfvSqyafTTjkjOS/k/p5NUR1jA8TxGcb/WCk59vMcV9Qv+8d8/3dj/AARW9Bt4hOXFwPKcMyQZBBSlIRnPlGKM29LNxm3AuqUZTbbZb0gJRoA3B69qk80JSm0+Ul/Qx6acYYo1/jJt/wC/+kfwyECHKUNOszXuZ67BIAP+VfLxxxIgs/bFsdU9p9cK05/u1p2aFMejOyIc5cV0yXmnAUB1txKCCklKu4z1qat9rTCW/IdfckzJBHOfcAGw+6lI6Cu2aUMeXJLytu1Rw08cmbDjgo0k07tdenZq8NBH1aCMcxUh8unuVhWN/livl/A4mt/Lxq8C5zsfq4VjV+X5V6G0To777lsniM2+rW4y40HUBfqjP5fxjYt9t8I7IlSH1SZr4AcdWAkBA6IQkdq5yy4/KeVSvyT2739TrjxZXCGBxrxat9ben1I9qJdIq5LtnlQ5MR51bpadIPnPUBadiR06j8q+m5pdavzS4SYlybiLcf0YPMGggK1AZ27fGvUWq5xFv/Vk5tmO64p3kPs8wNqV10mtm32xUVUt+S+ZMuXgPuKSEp0D7iU9MVqeTG05Sab2rlP79GYYcvkoxTS3ve0ueOyMtAvwt8XwSbX4dQUpJeL/ADCSog69IxnNbNujzG7rPfkuwea8y2HWYjiipCwRhSkKGRt796ym03GKp1NtuPIjuLK+S60HQ2T10FVbdutrcAPLLrj0mQsLkPu7KcI6AAdBUzZoPylFr4vlv9//AAafT5E4Rmn8PbarjpckjSm1Nq849oUptTagFKbUoCp35iRbrmm+tMvPQpEVmHdkxkLcfimOta2JqW2wVqSNSkugAkDBAOk1rcNz4y7quFZpaJlodiSZ8pLGpce2y1vJ0JZdwAOdlai3k4KcgJCsVdawlCE50pSnJ1HSAMk9zire1EreyDuNtktlUm2tIcUVFb8JS0tB0ncrjuK8qV+x8p/ZPmqB+vLMhwx5Uv6vlDGqLdkrhPDPoXcNke6VkH1q91ryYcGajlTYkaS1nIRKZbeRn91wEVpTaMuCZSn79w/H0pE5qZIWcMwrSpM2ZIXgnQ22wVAE+pI/yMxw1apzKbxcrsy03cL6804/EQQ43EiMtcliIpR2UUjOo9CT7ZM1Etlot5WYFvgxCvZZiRmWCoe/KSK2t9qkptljFROSpkOKjBExTrcJalKajsqdTAjI1HDBaR5wlPQalFPwGw2G0PMEO26UqMVgK0thD0J7tlcdXkOfVJSfepa82ifanJEphlyTalrcePhkFUq36yVrCmk7raySQUjUkHBCgMiszFJjwjOtr4bQ8tnBY0LjupdVgrSkgpCvcYPr7fp9O9Pkw0knS3XZ+O1S1WLUXKTTb2fKZYrZeLeidBRxEA3MW+kW1TKtVsLq1aELSz/TJXuAFOahnooZxXQewrhdlhzLnebezHadkutXG3SrgvdfJYakIeWuS6vYHCTgE5PYV3SvA1UYxyVDg/T6Oc5408nP4FKUr5T7BSlKAYpilKAY+NMUpQDFKUoBTHxpSgPCNEiw2y1GaDbZWpwpSSQVq6nc174pSq227ZIxUVS4GKxis0qFGKYpSgGKUpQClKUApSlAZpSlAY2ptSlANqbUpQDam1KUBiq1c+DLJcnuaHJUNLryHp7UBaWmpikkKCnE4OlfqpOCQTk9xZqVVJrgy4qXKNSDb7dbIzcO3xmY0Zv7LbKcDJ6qUepUe5JJNbdKVDQ2ptSlANqbUpQDam1KUA2ptSlANqbUpQDam1KUA2ptSlANqbUpQDam1KUA2ptSlANqbUpQDam1KUA2pWaUBilKUApSlAKUpQClKUApSlAKUpQClKUApSlAKUpQClKUApSlAKUpQClKUApSlAKUpQClKUApSlAZpSlAf//Z;" vertex="1" parent="1">
          <mxGeometry x="286.5" y="522" width="170" height="103.85" as="geometry" />
        </mxCell>
        <mxCell id="nUquxGuq074uo5o9FC-O-8" value="" style="endArrow=classic;html=1;rounded=0;exitX=1;exitY=0.5;exitDx=0;exitDy=0;" edge="1" parent="1" source="nUquxGuq074uo5o9FC-O-1">
          <mxGeometry width="50" height="50" relative="1" as="geometry">
            <mxPoint x="230" y="140" as="sourcePoint" />
            <mxPoint x="300" y="120" as="targetPoint" />
          </mxGeometry>
        </mxCell>
        <mxCell id="nUquxGuq074uo5o9FC-O-9" value="" style="endArrow=classic;html=1;rounded=0;exitX=1;exitY=0.38;exitDx=0;exitDy=0;exitPerimeter=0;entryX=-0.008;entryY=0.415;entryDx=0;entryDy=0;entryPerimeter=0;" edge="1" parent="1" source="nUquxGuq074uo5o9FC-O-2" target="nUquxGuq074uo5o9FC-O-3">
          <mxGeometry width="50" height="50" relative="1" as="geometry">
            <mxPoint x="450" y="120" as="sourcePoint" />
            <mxPoint x="530" y="120" as="targetPoint" />
            <Array as="points" />
          </mxGeometry>
        </mxCell>
        <mxCell id="nUquxGuq074uo5o9FC-O-10" value="" style="endArrow=classic;html=1;rounded=0;exitX=0.447;exitY=0.991;exitDx=0;exitDy=0;exitPerimeter=0;entryX=0.418;entryY=-0.056;entryDx=0;entryDy=0;entryPerimeter=0;" edge="1" parent="1" source="nUquxGuq074uo5o9FC-O-3" target="nUquxGuq074uo5o9FC-O-4">
          <mxGeometry width="50" height="50" relative="1" as="geometry">
            <mxPoint x="390" y="410" as="sourcePoint" />
            <mxPoint x="600" y="230" as="targetPoint" />
          </mxGeometry>
        </mxCell>
        <mxCell id="nUquxGuq074uo5o9FC-O-11" value="" style="endArrow=classic;html=1;rounded=0;exitX=0.471;exitY=0.936;exitDx=0;exitDy=0;exitPerimeter=0;" edge="1" parent="1" source="nUquxGuq074uo5o9FC-O-4">
          <mxGeometry width="50" height="50" relative="1" as="geometry">
            <mxPoint x="390" y="410" as="sourcePoint" />
            <mxPoint x="610" y="362" as="targetPoint" />
          </mxGeometry>
        </mxCell>
        <mxCell id="nUquxGuq074uo5o9FC-O-12" value="" style="endArrow=classic;html=1;rounded=0;exitX=0.419;exitY=0.977;exitDx=0;exitDy=0;exitPerimeter=0;" edge="1" parent="1" source="nUquxGuq074uo5o9FC-O-5">
          <mxGeometry width="50" height="50" relative="1" as="geometry">
            <mxPoint x="390" y="410" as="sourcePoint" />
            <mxPoint x="607" y="520" as="targetPoint" />
          </mxGeometry>
        </mxCell>
        <mxCell id="nUquxGuq074uo5o9FC-O-13" value="" style="endArrow=classic;html=1;rounded=0;" edge="1" parent="1">
          <mxGeometry width="50" height="50" relative="1" as="geometry">
            <mxPoint x="540" y="580" as="sourcePoint" />
            <mxPoint x="460" y="580" as="targetPoint" />
          </mxGeometry>
        </mxCell>
      </root>
    </mxGraphModel>
  </diagram>
</mxfile>
